<svg xmlns="http://www.w3.org/2000/svg" width="117" height="95" xmlns:v="https://vecta.io/nano"><circle cx="103.5" cy="81.5" r="13.5" fill="#919191" opacity=".17"/><g fill="#fecf0d"><circle cx="40" cy="40" r="40" opacity=".1"/><path d="M81 91.666H65c-14.48 0-20.667-6.186-20.667-20.666V55c0-14.48 6.187-20.667 20.667-20.667h5.333c1.101.008 1.992.899 2 2-.008 1.101-.899 1.992-2 2H65c-12.294 0-16.667 4.373-16.667 16.667v16c0 12.293 4.373 16.666 16.667 16.666h16c12.293 0 16.667-4.373 16.667-16.667v-5.333a2 2 0 1 1 4 0v5.333C101.666 85.48 95.48 91.666 81 91.666zM63.667 78.173a5.97 5.97 0 0 1-4.213-1.653 6 6 0 0 1-1.573-5.2l1.147-8.027a9.25 9.25 0 0 1 2.32-4.64L82.36 37.64c5.307-5.307 10.693-5.307 16 0 2.907 2.907 4.213 5.867 3.947 8.827-.24 2.4-1.52 4.747-3.947 7.147L77.347 74.627a9.25 9.25 0 0 1-4.64 2.32l-8.027 1.146a4.47 4.47 0 0 1-1.013.08zm21.52-37.706L64.174 61.48c-.591.679-1.003 1.495-1.2 2.373l-1.147 8.027c-.142.642.026 1.313.453 1.813.5.427 1.171.595 1.813.453l8.027-1.147c.88-.191 1.697-.604 2.373-1.2l21.011-21.012c1.733-1.733 2.64-3.28 2.773-4.72.16-1.733-.747-3.573-2.773-5.627-4.264-4.267-7.2-3.067-10.317.027z"/><path d="M93.934 57.213a1.72 1.72 0 0 1-.533-.08c-7.047-2.006-12.555-7.514-14.561-14.56-.293-1.067.325-2.171 1.387-2.48.509-.143 1.055-.078 1.515.183s.798.694.938 1.204c1.624 5.704 6.083 10.163 11.787 11.787 1.066.304 1.687 1.412 1.387 2.48a1.96 1.96 0 0 1-1.92 1.466z"/></g></svg>