<?xml version="1.0" encoding="utf-8"?>
<!-- Generator: Adobe Illustrator 25.1.0, SVG Export Plug-In . SVG Version: 6.00 Build 0)  -->
<svg version="1.1" id="Calque_1" xmlns:v="https://vecta.io/nano"
	 xmlns="http://www.w3.org/2000/svg" xmlns:xlink="http://www.w3.org/1999/xlink" x="0px" y="0px" viewBox="0 0 150 90"
	 style="enable-background:new 0 0 150 90;" xml:space="preserve">
<style type="text/css">
	.st0{opacity:0.17;fill:#919191;enable-background:new    ;}
	.st1{opacity:0.1;fill:#FECF0D;enable-background:new    ;}
	.st2{fill:#FECF0D;}
</style>
<circle class="st0" cx="101.5" cy="72.5" r="13.5"/>
<g>
	<circle class="st1" cx="40" cy="39.7" r="40"/>
	<g>
		<path class="st2" d="M82.7,74h-16C52.2,74,46,67.8,46,53.3v-16c0-14.5,6.2-20.7,20.7-20.7H72c1.1,0,2,0.9,2,2c0,1.1-0.9,2-2,2
			h-5.3C54.4,20.7,50,25,50,37.3v16C50,65.6,54.4,70,66.7,70h16c12.3,0,16.7-4.4,16.7-16.7V48c0-1.1,0.9-2,2-2s2,0.9,2,2v5.3
			C103.3,67.8,97.1,74,82.7,74z M65.3,60.5c-1.6,0-3.1-0.6-4.2-1.7c-1.3-1.4-1.9-3.3-1.6-5.2l1.1-8c0.3-1.7,1.1-3.3,2.3-4.6l21-21
			c5.3-5.3,10.7-5.3,16,0c2.9,2.9,4.2,5.9,3.9,8.8c-0.2,2.4-1.5,4.7-3.9,7.1L79,57c-1.3,1.2-2.9,2-4.6,2.3l-8,1.1
			C66,60.5,65.7,60.5,65.3,60.5z M86.9,22.8l-21,21c-0.6,0.7-1,1.5-1.2,2.4l-1.1,8c-0.1,0.6,0,1.3,0.5,1.8c0.5,0.4,1.2,0.6,1.8,0.5
			l8-1.1c0.9-0.2,1.7-0.6,2.4-1.2l21-21c1.7-1.7,2.6-3.3,2.8-4.7c0.2-1.7-0.7-3.6-2.8-5.6C92.9,18.5,90,19.7,86.9,22.8L86.9,22.8z"
			/>
		<path class="st2" d="M95.6,39.6c-0.2,0-0.4,0-0.5-0.1c-7-2-12.6-7.5-14.6-14.6c-0.3-1.1,0.3-2.2,1.4-2.5c0.5-0.1,1.1-0.1,1.5,0.2
			s0.8,0.7,0.9,1.2C86,29.5,90.4,34,96.1,35.6c1.1,0.3,1.7,1.4,1.4,2.5C97.3,39,96.5,39.6,95.6,39.6L95.6,39.6z"/>
	</g>
</g>
</svg>
