<svg xmlns="http://www.w3.org/2000/svg" width="117" height="95" viewBox="0 0 117 95">
  <g id="Groupe_91" data-name="Groupe 91" transform="translate(-1133 -355)">
    <circle id="Ellipse_40" data-name="Ellipse 40" cx="13.5" cy="13.5" r="13.5" transform="translate(1223 423)" fill="#919191" opacity="0.17"/>
    <circle id="Ellipse_42" data-name="Ellipse 42" cx="40" cy="40" r="40" transform="translate(1133 355)" fill="#fecf0d" opacity="0.1"/>
    <g id="vuesax_outline_people" data-name="vuesax/outline/people" transform="translate(541 118)">
      <g id="people" transform="translate(620 252)">
        <path id="Vector" d="M11.433,22.167H11a10.27,10.27,0,1,1,.467.033C11.467,22.167,11.467,22.167,11.433,22.167ZM11.1,4.967a6.1,6.1,0,0,0-.233,12.2,1.615,1.615,0,0,1,.6,0,6.1,6.1,0,0,0-.367-12.2Z" transform="translate(48.566 4.2)" fill="#fecf0d"/>
        <path id="Vector-2" data-name="Vector" d="M6.07,21.756a22.01,22.01,0,0,1-3.9-.333,2.5,2.5,0,1,1,.867-4.933,16.25,16.25,0,0,0,11.333-2,4.572,4.572,0,0,0,2.4-3.633c0-1.3-.867-2.567-2.4-3.6A16.309,16.309,0,0,0,2.937,5.289a2.476,2.476,0,0,1-2.9-2.033A2.5,2.5,0,0,1,2.07.356,21.094,21.094,0,0,1,17.137,3.089c2.933,1.967,4.633,4.767,4.633,7.767,0,2.967-1.667,5.8-4.633,7.8A20.285,20.285,0,0,1,6.07,21.756Z" transform="translate(53.963 29.178)" fill="#fecf0d"/>
        <path id="Vector-3" data-name="Vector" d="M10.8,22.2h-.067a11.083,11.083,0,1,1,.767,0l-.7-2.5.233,2.5Zm.333-5a3.234,3.234,0,0,1,.567.033,6.2,6.2,0,1,0-.867,0A.658.658,0,0,1,11.133,17.2Z" transform="translate(9.1 4.167)" fill="#fecf0d"/>
        <path id="Vector-4" data-name="Vector" d="M15.7,21.756a20.285,20.285,0,0,1-11.067-3.1A9.548,9.548,0,0,1,0,10.856c0-2.967,1.7-5.8,4.633-7.767A21.094,21.094,0,0,1,19.7.356a2.5,2.5,0,0,1,2.033,2.9,2.476,2.476,0,0,1-2.9,2.033A16.342,16.342,0,0,0,7.4,7.256a4.524,4.524,0,0,0-2.4,3.6,4.653,4.653,0,0,0,2.4,3.633,16.25,16.25,0,0,0,11.333,2,2.5,2.5,0,1,1,.867,4.933A22.01,22.01,0,0,1,15.7,21.756Z" transform="translate(4.167 29.178)" fill="#fecf0d"/>
        <path id="Vector-5" data-name="Vector" d="M11.433,22.167H11a10.27,10.27,0,1,1,.467.033C11.467,22.167,11.467,22.167,11.433,22.167ZM11.1,4.967a6.1,6.1,0,0,0-.233,12.2,1.615,1.615,0,0,1,.6,0,6.1,6.1,0,0,0-.367-12.2Z" transform="translate(28.566 29.1)" fill="#fecf0d"/>
        <path id="Vector-6" data-name="Vector" d="M15.733,21.8a19.991,19.991,0,0,1-11.1-3.133C1.7,16.7,0,13.9,0,10.9A9.513,9.513,0,0,1,4.633,3.1c6.233-4.133,16-4.133,22.2,0,2.933,1.967,4.633,4.767,4.633,7.767a9.513,9.513,0,0,1-4.633,7.8A20.265,20.265,0,0,1,15.733,21.8ZM7.4,7.3A4.572,4.572,0,0,0,5,10.933c0,1.3.867,2.567,2.4,3.6,4.5,3.033,12.133,3.033,16.633,0a4.572,4.572,0,0,0,2.4-3.633c0-1.3-.867-2.567-2.4-3.6C19.567,4.267,11.933,4.3,7.4,7.3Z" transform="translate(24.266 54.067)" fill="#fecf0d"/>
        <path id="Vector-7" data-name="Vector" d="M0,0H80V80H0Z" fill="none" opacity="0"/>
      </g>
    </g>
  </g>
</svg>
