<?xml version="1.0" encoding="utf-8"?>
<!-- Generator: Adobe Illustrator 25.1.0, SVG Export Plug-In . SVG Version: 6.00 Build 0)  -->
<svg version="1.1" id="Calque_1" xmlns="http://www.w3.org/2000/svg" xmlns:xlink="http://www.w3.org/1999/xlink" x="0px" y="0px"
	 viewBox="0 0 150 90" style="enable-background:new 0 0 150 90;" xml:space="preserve">
<style type="text/css">
	.st0{opacity:0.17;fill:#919191;enable-background:new    ;}
	.st1{opacity:0.1;fill:#FECF0D;enable-background:new    ;}
	.st2{fill:#FECF0D;}
	.st3{fill:none;}
</style>
<g id="Groupe_88" transform="translate(-324 -355)">
	<circle id="Ellipse_8" class="st0" cx="426.6" cy="431.5" r="13.5"/>
	<circle id="Ellipse_7" class="st1" cx="363.5" cy="395" r="40"/>
	<g id="vuesax_outline_user" transform="translate(256 183)">
		<g id="user" transform="translate(108 188)">
			<path id="Vector" class="st2" d="M35,31.2c-9.4,0-17-7.6-17-17s7.6-17,17-17s17,7.6,17,17l0,0C52,23.6,44.4,31.2,35,31.2z
				 M35,1.6c-6.9,0-12.6,5.6-12.6,12.6S28.1,26.8,35,26.8s12.6-5.6,12.6-12.6c0,0,0,0,0,0C47.6,7.3,41.9,1.7,35,1.6z"/>
			<path id="Vector-2" class="st2" d="M60.4,60.8c-1.2,0-2.2-1-2.2-2.2c0-10.2-10.4-18.5-23.2-18.5s-23.2,8.3-23.2,18.5
				c0,1.2-1,2.2-2.2,2.2c-1.2,0-2.2-1-2.2-2.2C7.4,46,19.8,35.7,35,35.7S62.6,46,62.6,58.6C62.6,59.8,61.6,60.8,60.4,60.8z"/>
			<path id="Vector-3" class="st3" d="M-0.5-6.5h71v71h-71V-6.5z"/>
		</g>
	</g>
</g>
</svg>
