<svg xmlns="http://www.w3.org/2000/svg" viewBox="0 0 179.23 154.17"><defs><style>.cls-1{fill:#e89f18}.cls-2{fill:#f5da08}.cls-3{fill:#f0c225}.cls-4{fill:#3e3a34}</style></defs><g id="Calque_2" data-name="Calque 2"><g id="Calque_1-2" data-name="Calque 1"><path class="cls-1" d="M32.94 129.57 40.91 116.43H22.34L14.94 129.57h18z"/><path class="cls-2" d="M126.89 139.79H143.62L151.28 153.32 135.45 153.46 126.89 139.79z"/><path class="cls-3" d="M95.75 36.51 103.66 49.66 111.96 36.51l-8.11-13.02L95.75 36.51z"/><path class="cls-4" d="M8.3 139.79H40.91L74.23 80.68 82.48 93.57 56.33 139.79 113.62 140.35 122.3 153.46.0 154.18 8.3 139.79z"/><path class="cls-4" d="M29.23 103.4H44.94L72.98 54.93 99.32 99.57 116.04 99.7 80.94 39.57 96.77 12.64 89.11.0 29.23 103.4z"/><path class="cls-4" d="M87.32 109.15 79.06 123.57 147.19 123 163.02 150.64H179.23L118.47 45.83 110.81 58.85 139.79 108.89 87.32 109.15z"/></g></g></svg>