<svg xmlns="http://www.w3.org/2000/svg" viewBox="0 0 179.23 154.17"><defs><style>.cls-1{fill:#e89f18;}.cls-2{fill:#f5da08;}.cls-3{fill:#f0c225;}.cls-4{fill:#3e3a34;}</style></defs><g id="Calque_2" data-name="Calque 2"><g id="Calque_1-2" data-name="Calque 1"><polygon class="cls-1" points="32.94 129.57 40.91 116.43 22.34 116.43 14.94 129.57 32.94 129.57"/><polygon class="cls-2" points="126.89 139.79 143.62 139.79 151.28 153.32 135.45 153.46 126.89 139.79"/><polygon class="cls-3" points="95.75 36.51 103.66 49.66 111.96 36.51 103.85 23.49 95.75 36.51"/><polygon class="cls-4" points="8.3 139.79 40.91 139.79 74.23 80.68 82.48 93.57 56.33 139.79 113.62 140.35 122.3 153.46 0 154.18 8.3 139.79"/><polygon class="cls-4" points="29.23 103.4 44.94 103.4 72.98 54.93 99.32 99.57 116.04 99.7 80.94 39.57 96.77 12.64 89.11 0 29.23 103.4"/><polygon class="cls-4" points="87.32 109.15 79.06 123.57 147.19 123 163.02 150.64 179.23 150.64 118.47 45.83 110.81 58.85 139.79 108.89 87.32 109.15"/></g></g></svg>