<svg xmlns="http://www.w3.org/2000/svg" width="117" height="95" viewBox="0 0 117 95"><g id="Groupe_89" data-name="Groupe 89" transform="translate(-324 -655)"><circle id="Ellipse_43" data-name="Ellipse 43" cx="13.5" cy="13.5" r="13.5" transform="translate(414 723)" fill="#919191" opacity=".17"/><circle id="Ellipse_45" data-name="Ellipse 45" cx="40" cy="40" r="40" transform="translate(324 655)" fill="#fecf0d" opacity=".1"/><g id="vuesax_outline_location" data-name="vuesax/outline/location" transform="translate(-66 481)"><g id="location" transform="translate(428 188)"><path id="Vector" d="M12.255 24.478A12.239 12.239.0 1 1 24.51 12.255 12.265 12.265.0 0 1 12.255 24.478zm0-19.728a7.505 7.505.0 1 0 7.505 7.505A7.521 7.521.0 0 0 12.255 4.75z" transform="translate(25.745 20.393)" fill="#fecf0d"/><path id="Vector-2" data-name="Vector" d="M29.693 68.115a18.907 18.907.0 0 1-13.078-5.288C7.273 53.833-3.051 39.488.844 22.42 4.359 6.935 17.881.0 29.693.0h.032C41.536.0 55.058 6.935 58.573 22.452c3.863 17.068-6.46 31.382-15.8 40.375A18.907 18.907.0 0 1 29.693 68.115zm0-63.365C20.478 4.75 8.634 9.658 5.5 23.465c-3.42 14.915 5.953 27.772 14.44 35.91a14.014 14.014.0 0 0 19.538.0c8.455-8.138 17.828-20.995 14.472-35.91C50.783 9.658 38.908 4.75 29.693 4.75z" transform="translate(8.307 3.958)" fill="#fecf0d"/><path id="Vector-3" data-name="Vector" d="M0 0H76V76H0z" fill="none" opacity="0"/></g></g></g></svg>