<?xml version="1.0" encoding="utf-8"?>
<!-- Generator: Adobe Illustrator 25.1.0, SVG Export Plug-In . SVG Version: 6.00 Build 0)  -->
<svg version="1.1" id="Calque_1" xmlns="http://www.w3.org/2000/svg" xmlns:xlink="http://www.w3.org/1999/xlink" x="0px" y="0px"
	 viewBox="0 0 150 90" style="enable-background:new 0 0 150 90;" xml:space="preserve">
<style type="text/css">
	.st0{opacity:0.17;fill:#919191;enable-background:new    ;}
	.st1{opacity:0.1;fill:#FECF0D;enable-background:new    ;}
	.st2{fill:#FECF0D;}
	.st3{fill:none;}
</style>
<g id="Groupe_90" transform="translate(-1133 -655)">
	<circle id="Ellipse_46" class="st0" cx="1236.1" cy="731.5" r="13.5"/>
	<circle id="Ellipse_48" class="st1" cx="1167.6" cy="689.9" r="34.9"/>
	<g id="vuesax_outline_timer" transform="translate(937 487)">
		<g id="timer" transform="translate(236 188)">
			<path id="Vector" class="st2" d="M35,54.1c-14.2,0-25.7-11.5-25.7-25.7S20.8,2.7,35,2.7s25.7,11.5,25.7,25.7
				C60.7,42.6,49.2,54.1,35,54.1z M35,6.7c-12,0-21.7,9.7-21.7,21.7c0,12,9.7,21.7,21.7,21.7c12,0,21.7-9.7,21.7-21.7
				C56.7,16.4,47,6.7,35,6.7L35,6.7z"/>
			<path id="Vector-2" class="st2" d="M35,29.7c-1.1,0-2-0.9-2-2V14.2c0-1.1,0.9-2,2-2c1.1,0,2,0.9,2,2v13.5
				C37,28.8,36.1,29.7,35,29.7z"/>
			<path id="Vector-3" class="st2" d="M43.1-0.1H26.9c-1.1,0-2-0.9-2-2c0-1.1,0.9-2,2-2h16.2c1.1,0,2,0.9,2,2
				C45.1-1,44.2-0.1,43.1-0.1z"/>
			<path id="Vector-4" class="st3" d="M2.5-7.5h65v65h-65V-7.5z"/>
		</g>
	</g>
</g>
</svg>
