<?xml version="1.0" encoding="utf-8"?>
<!-- Generator: Adobe Illustrator 25.1.0, SVG Export Plug-In . SVG Version: 6.00 Build 0)  -->
<svg version="1.1" id="Calque_1" xmlns="http://www.w3.org/2000/svg" xmlns:xlink="http://www.w3.org/1999/xlink" x="0px" y="0px"
	 viewBox="0 0 150 90" style="enable-background:new 0 0 150 90;" xml:space="preserve">
<style type="text/css">
	.st0{opacity:0.1;fill:#FECF0D;enable-background:new    ;}
	.st1{opacity:0.17;fill:#919191;enable-background:new    ;}
	.st2{fill:#FED119;}
</style>
<g id="Groupe_95" transform="translate(-1474 -373)">
	<circle id="Ellipse_13" class="st0" cx="1514" cy="415.5" r="40"/>
	<circle id="Ellipse_14" class="st1" cx="1604.5" cy="407" r="13.5"/>
	<g id="lnr-layers" transform="translate(1526 388)">
		<path id="Tracé_11" class="st2" d="M23,34.2c-0.2,0-0.4,0-0.5-0.1L-3.9,22.9c-0.7-0.3-1-1.1-0.7-1.8c0.1-0.3,0.4-0.6,0.7-0.7
			L22.5,9.3c0.3-0.1,0.7-0.1,1.1,0l26.4,11.1c0.7,0.3,1,1.1,0.7,1.8c-0.1,0.3-0.4,0.6-0.7,0.7L23.5,34.1
			C23.4,34.1,23.2,34.2,23,34.2z M0.2,21.7L23,31.3l22.8-9.6L23,12.1L0.2,21.7z"/>
		<path id="Tracé_12" class="st2" d="M23,42.5c-0.2,0-0.4,0-0.5-0.1L-3.9,31.3c-0.7-0.3-1-1.1-0.7-1.8c0.3-0.7,1.1-1,1.8-0.7
			L23,39.6l25.9-10.9c0.7-0.3,1.5,0,1.8,0.7c0.3,0.7,0,1.5-0.7,1.8L23.5,42.4C23.4,42.5,23.2,42.5,23,42.5z"/>
		<path id="Tracé_13" class="st2" d="M23,50.8c-0.2,0-0.4,0-0.5-0.1L-3.9,39.6c-0.7-0.3-1-1.1-0.7-1.8c0.3-0.7,1.1-1,1.8-0.7
			L23,47.9l25.9-10.9c0.7-0.3,1.5,0,1.8,0.7s0,1.5-0.7,1.8l0,0L23.5,50.7C23.4,50.8,23.2,50.8,23,50.8z"/>
	</g>
</g>
</svg>
