<svg xmlns="http://www.w3.org/2000/svg" width="144" height="80" viewBox="0 0 144 80">
  <g id="Groupe_95" data-name="Groupe 95" transform="translate(-1474 -373)">
    <circle id="Ellipse_13" data-name="Ellipse 13" cx="40" cy="40" r="40" transform="translate(1474 373)" fill="#fecf0d" opacity="0.1"/>
    <circle id="Ellipse_14" data-name="Ellipse 14" cx="13.5" cy="13.5" r="13.5" transform="translate(1591 391)" fill="#919191" opacity="0.17"/>
    <g id="lnr-layers" transform="translate(1526 388)">
      <path id="Tracé_11" data-name="Tracé 11" d="M27.8,28.019a1.394,1.394,0,0,1-.539-.108L.851,16.791a1.391,1.391,0,0,1,0-2.563L27.26,3.108a1.4,1.4,0,0,1,1.079,0l26.409,11.12a1.391,1.391,0,0,1,0,2.563L28.339,27.911A1.394,1.394,0,0,1,27.8,28.019ZM4.971,15.51,27.8,25.12l22.829-9.61L27.8,5.9,4.971,15.51Z" transform="translate(0 0)" fill="#fed119"/>
      <path id="Tracé_12" data-name="Tracé 12" d="M27.8,23.9a1.394,1.394,0,0,1-.539-.108L.851,12.672A1.39,1.39,0,0,1,1.93,10.109L27.8,21,53.67,10.109a1.39,1.39,0,1,1,1.079,2.563L28.339,23.792A1.394,1.394,0,0,1,27.8,23.9Z" transform="translate(0 12.459)" fill="#fed119"/>
      <path id="Tracé_13" data-name="Tracé 13" d="M27.8,26.9a1.394,1.394,0,0,1-.539-.108L.851,15.672A1.39,1.39,0,1,1,1.93,13.109L27.8,24,53.67,13.109a1.39,1.39,0,1,1,1.079,2.563L28.339,26.792A1.394,1.394,0,0,1,27.8,26.9Z" transform="translate(0 17.799)" fill="#fed119"/>
    </g>
  </g>
</svg>
